<svg width="25" height="24" viewBox="0 0 25 24" fill="none" xmlns="http://www.w3.org/2000/svg">
<g clip-path="url(#clip0_1_6465)">
<g clip-path="url(#clip1_1_6465)">
<g clip-path="url(#clip2_1_6465)">
<mask id="mask0_1_6465" style="mask-type:luminance" maskUnits="userSpaceOnUse" x="0" y="0" width="25" height="24">
<path d="M24.7197 0H0.719727V24H24.7197V0Z" fill="white"/>
</mask>
<g mask="url(#mask0_1_6465)">
<path d="M24.7197 12C24.7197 18.6275 19.3471 24 12.7197 24C10.6716 24 8.74331 23.4869 7.05639 22.5822C5.66768 21.8375 4.94895 20.8274 3.95521 19.6197C3.01728 18.4799 1.77917 17.164 1.31046 15.7292C0.927068 14.5554 0.719727 13.3019 0.719727 12C0.719727 9.78454 1.3201 7.70929 2.36707 5.92807C4.45197 2.38096 8.30778 0.880961 12.7197 0.880961C14.0397 0.880961 15.31 0.213196 16.498 0.606937C21.2742 2.19004 24.7197 6.69268 24.7197 12Z" fill="url(#paint0_linear_1_6465)"/>
<path d="M15.3909 1.68978C14.183 1.28117 12.889 1.05957 11.5432 1.05957C8.74333 1.05957 6.40592 2.25703 4.36446 3.86437C3.73185 4.51355 2.93387 4.99576 2.46037 5.77444C1.98686 6.55312 1.59952 7.38997 1.31152 8.27185C1.36268 8.33392 1.42023 8.39195 1.48559 8.44357C1.78681 8.68141 2.18695 8.75308 2.55199 8.63458L5.8166 7.57463C6.21194 7.44625 6.64583 7.55049 6.93971 7.84442L7.72394 8.62865C8.0415 8.94621 8.13538 9.42428 7.96154 9.83835C7.71105 10.435 8.02427 11.1183 8.6398 11.3179L9.58333 11.6239C9.72559 11.6701 9.85015 11.7591 9.93991 11.8787C10.1769 12.1948 10.1175 12.6424 9.80616 12.8857L9.4247 13.1837C9.06884 13.4617 8.86084 13.8882 8.86084 14.3398V14.6767C8.86084 15.2552 9.14559 15.7965 9.62225 16.1242L10.2768 16.5742C10.3362 16.6151 10.4028 16.6444 10.4731 16.6606L10.8593 16.7497C11.6738 16.9377 12.2978 17.5932 12.4455 18.416C12.5021 18.7311 12.4855 19.0549 12.397 19.3625L11.7542 21.5968C11.6486 21.964 11.9243 22.3302 12.3064 22.3302C12.4511 22.3302 12.5905 22.2756 12.6967 22.1774L15.159 19.8988C15.5061 19.5777 15.7879 19.1927 15.9892 18.7649L16.539 17.5967C16.7208 17.2103 16.834 16.7951 16.8735 16.3699L17.0873 14.0655C17.1805 13.0612 16.7425 12.0812 15.9321 11.4807C15.435 11.1124 14.8328 10.9135 14.2142 10.9135H13.7737C13.118 10.9135 12.5651 10.4249 12.4845 9.77416C12.4264 9.30437 12.6284 8.84014 13.0118 8.56249L13.4988 8.20992C13.6671 8.08799 13.8623 8.00828 14.0679 7.97741L15.2624 7.79821C16.092 7.67378 16.8162 7.17002 17.2214 6.43552C17.7459 5.48494 17.7725 4.33802 17.2929 3.36409C16.905 2.57661 16.2224 1.9711 15.3909 1.68978Z" fill="url(#paint1_linear_1_6465)"/>
<path d="M12.72 0C12.4031 0 12.0891 0.0125176 11.7783 0.0366118C17.9656 0.516894 22.8367 5.68951 22.8367 12C22.8367 18.3105 17.9656 23.4831 11.7783 23.9634C12.0891 23.9875 12.4031 24 12.72 24C16.1777 24 19.2938 22.5376 21.4836 20.1976C21.4836 20.1976 24.6259 15.1697 24.6259 12C24.6259 9.68706 22.9319 5.69468 22.9319 5.69468C20.8171 2.27689 17.0344 0 12.72 0Z" fill="url(#paint2_linear_1_6465)"/>
<path d="M18.4696 2.30447C18.0818 1.51699 17.3992 0.911529 16.5677 0.630212C15.3598 0.221553 14.0658 0 12.72 0C8.32108 0 4.47505 2.36701 2.38592 5.89685C2.09294 6.39191 2.21096 7.02748 2.66244 7.384C2.96367 7.62184 3.36381 7.69351 3.72884 7.57501L6.99345 6.51506C7.38879 6.38668 7.82268 6.49092 8.11656 6.78485L8.9008 7.56908C9.21835 7.88664 9.31223 8.36471 9.1384 8.77878C8.8879 9.37543 9.20112 10.0587 9.81665 10.2584L10.7602 10.5644C10.9024 10.6105 11.027 10.6995 11.1167 10.8192C11.3538 11.1352 11.2943 11.5829 10.983 11.8261L10.6016 12.1241C10.2457 12.4022 10.0377 12.8287 10.0377 13.2803V13.6172C10.0377 14.1956 10.3224 14.737 10.7991 15.0647L11.4536 15.5147C11.5131 15.5555 11.5797 15.5848 11.65 15.6011L12.0361 15.6902C12.8507 15.8782 13.4747 16.5337 13.6224 17.3565C13.6789 17.6715 13.6623 17.9953 13.5738 18.303L12.9311 20.5373C12.8254 20.9046 13.1011 21.2707 13.4833 21.2707C13.628 21.2707 13.7673 21.2161 13.8735 21.1178L16.3359 18.8392C16.6829 18.5181 16.9647 18.1332 17.1661 17.7054L17.7158 16.5371C17.8977 16.1507 18.0109 15.7356 18.0503 15.3104L18.2641 13.006C18.3573 12.0017 17.9193 11.0216 17.1089 10.4211C16.6119 10.0528 16.0097 9.85402 15.3911 9.85402H14.9505C14.2948 9.85402 13.742 9.36537 13.6614 8.71464C13.6032 8.24485 13.8053 7.78061 14.1887 7.50296L14.6756 7.1504C14.844 7.02847 15.0392 6.94875 15.2448 6.91788L16.4393 6.73868C17.2688 6.61426 17.9931 6.11049 18.3983 5.376C18.9227 4.42532 18.9493 3.2784 18.4696 2.30447Z" fill="url(#paint3_linear_1_6465)"/>
<path d="M5.5868 17.8518C4.77076 17.4466 4.1284 16.7605 3.77786 15.9195L3.39701 15.0059C3.24134 14.6324 2.894 14.3739 2.4916 14.3319C1.69301 14.2486 1.07513 15.0177 1.32784 15.7798C2.30167 18.7164 4.37918 21.1494 7.06878 22.5879L7.24276 20.8456C7.36704 19.6004 6.70765 18.4082 5.5868 17.8518Z" fill="url(#paint4_linear_1_6465)"/>
<path d="M22.9308 5.69507L22.8556 5.83596C22.2225 7.02312 22.3964 8.47907 23.2914 9.48363C23.8172 10.0738 24.1078 10.8367 24.1078 11.6272C24.1078 12.5523 23.7102 13.4328 23.0161 14.0445L22.0775 14.8719C21.4675 15.4096 21.118 16.1835 21.118 16.9966V17.2422C21.118 17.7237 20.9952 18.1973 20.7613 18.6182L20.3432 19.3704C20.2378 19.56 20.225 19.7873 20.3085 19.9875C20.507 20.4637 21.1301 20.5737 21.4826 20.197C23.4901 18.052 24.7195 15.1697 24.7195 12C24.7195 9.68697 24.0645 7.5273 22.9308 5.69507Z" fill="url(#paint5_linear_1_6465)"/>
<path d="M22.9308 5.69507L22.8557 5.83596C22.2225 7.02312 22.3965 8.47907 23.2914 9.48363C23.8173 10.0738 24.1078 10.8367 24.1078 11.6272C24.1078 12.5523 23.7102 13.4328 23.0162 14.0445L22.5915 14.4188C22.2308 16.181 21.484 17.8023 20.4431 19.1907L20.3432 19.3704C20.2378 19.56 20.225 19.7873 20.3085 19.9875C20.507 20.4637 21.1301 20.5737 21.4826 20.197C23.4902 18.052 24.7196 15.1697 24.7196 12C24.7196 9.68697 24.0646 7.5273 22.9308 5.69507Z" fill="url(#paint6_linear_1_6465)"/>
<path d="M14.1881 7.50287L14.675 7.15031C14.8434 7.02838 15.0386 6.94866 15.2442 6.91779L16.4387 6.73859C17.2682 6.61417 17.9925 6.1104 18.3977 5.37591C18.9222 4.42532 18.9488 3.2784 18.4691 2.30447C18.0813 1.51699 17.3987 0.91153 16.5671 0.630212C15.3593 0.221553 14.0653 0 12.7195 0C12.4024 0 12.0883 0.0127059 11.7774 0.0368471C12.7863 0.115153 13.7603 0.317788 14.6838 0.630212C15.5153 0.91153 16.1979 1.51699 16.5858 2.30447C17.0655 3.2784 17.0388 4.42532 16.5143 5.37591C16.1091 6.1104 15.3849 6.61417 14.5553 6.73859L13.3608 6.91779C13.1552 6.94861 12.96 7.02838 12.7917 7.15031L12.3047 7.50287C11.9214 7.78052 11.7193 8.24475 11.7774 8.71454C11.858 9.36527 12.4109 9.85393 13.0666 9.85393H13.5071C14.1257 9.85393 14.728 10.0528 15.225 10.421C16.0353 11.0215 16.4734 12.0016 16.3802 13.0059L16.1664 15.3103C16.127 15.7355 16.0137 16.1506 15.8319 16.537L15.2821 17.7053C15.0808 18.133 14.799 18.518 14.4519 18.8392L13.0442 20.1418L12.9304 20.5371C12.8248 20.9044 13.1005 21.2705 13.4826 21.2705C13.6273 21.2705 13.7667 21.216 13.8729 21.1177L16.3352 18.8391C16.6822 18.518 16.9641 18.133 17.1654 17.7052L17.7152 16.5369C17.897 16.1505 18.0102 15.7354 18.0497 15.3102L18.2635 13.0058C18.3566 12.0016 17.9187 11.0215 17.1083 10.421C16.6112 10.0527 16.009 9.85388 15.3904 9.85388H14.9499C14.2942 9.85388 13.7413 9.36522 13.6607 8.71449C13.6026 8.24471 13.8046 7.78052 14.1881 7.50287Z" fill="url(#paint7_linear_1_6465)"/>
<path d="M5.587 17.8517C4.77096 17.4466 4.1286 16.7604 3.77806 15.9195L3.39721 15.0058C3.24154 14.6324 2.8942 14.3739 2.4918 14.3319C2.2295 14.3045 1.98696 14.3696 1.78809 14.4957C1.97801 14.6151 2.13086 14.7914 2.22023 15.0058L2.60107 15.9195C2.95161 16.7604 3.59397 17.4466 4.41001 17.8517C5.53086 18.4082 6.19025 19.6003 6.06592 20.8456L5.95929 21.9138C6.31599 22.1575 6.68601 22.3831 7.06898 22.5879L7.24296 20.8456C7.36724 19.6004 6.70785 18.4082 5.587 17.8517Z" fill="url(#paint8_linear_1_6465)"/>
</g>
</g>
</g>
</g>
<defs>
<linearGradient id="paint0_linear_1_6465" x1="0.331021" y1="12.2413" x2="29.7651" y2="12.2413" gradientUnits="userSpaceOnUse">
<stop stop-color="#60B7FF"/>
<stop offset="0.5857" stop-color="#0182FC"/>
<stop offset="1" stop-color="#2740B0"/>
</linearGradient>
<linearGradient id="paint1_linear_1_6465" x1="-5.02095" y1="11.6949" x2="26.4764" y2="11.6949" gradientUnits="userSpaceOnUse">
<stop stop-color="#60B7FF"/>
<stop offset="0.5857" stop-color="#0182FC"/>
<stop offset="1" stop-color="#2740B0"/>
</linearGradient>
<linearGradient id="paint2_linear_1_6465" x1="-0.974809" y1="12" x2="25.0325" y2="12" gradientUnits="userSpaceOnUse">
<stop stop-color="#60B7FF"/>
<stop offset="0.5857" stop-color="#0182FC"/>
<stop offset="1" stop-color="#2740B0"/>
</linearGradient>
<linearGradient id="paint3_linear_1_6465" x1="1.04946" y1="10.6353" x2="25.7119" y2="10.6353" gradientUnits="userSpaceOnUse">
<stop stop-color="#A2E62E"/>
<stop offset="0.5857" stop-color="#81B823"/>
<stop offset="1" stop-color="#037E73"/>
</linearGradient>
<linearGradient id="paint4_linear_1_6465" x1="1.0493" y1="18.4568" x2="25.7118" y2="18.4568" gradientUnits="userSpaceOnUse">
<stop stop-color="#A2E62E"/>
<stop offset="0.5857" stop-color="#81B823"/>
<stop offset="1" stop-color="#037E73"/>
</linearGradient>
<linearGradient id="paint5_linear_1_6465" x1="1.04895" y1="13.0591" x2="25.7114" y2="13.0591" gradientUnits="userSpaceOnUse">
<stop stop-color="#A2E62E"/>
<stop offset="0.5857" stop-color="#81B823"/>
<stop offset="1" stop-color="#037E73"/>
</linearGradient>
<linearGradient id="paint6_linear_1_6465" x1="9.00194" y1="13.0591" x2="19.7634" y2="13.0591" gradientUnits="userSpaceOnUse">
<stop stop-color="#A2E62E"/>
<stop offset="0.5857" stop-color="#81B823"/>
<stop offset="1" stop-color="#037E73"/>
</linearGradient>
<linearGradient id="paint7_linear_1_6465" x1="0.349139" y1="10.6353" x2="22.5856" y2="10.6353" gradientUnits="userSpaceOnUse">
<stop stop-color="#A2E62E"/>
<stop offset="0.5857" stop-color="#81B823"/>
<stop offset="1" stop-color="#037E73"/>
</linearGradient>
<linearGradient id="paint8_linear_1_6465" x1="-1.13253" y1="18.4568" x2="15.1823" y2="18.4568" gradientUnits="userSpaceOnUse">
<stop stop-color="#A2E62E"/>
<stop offset="0.5857" stop-color="#81B823"/>
<stop offset="1" stop-color="#037E73"/>
</linearGradient>
<clipPath id="clip0_1_6465">
<rect width="24" height="24" fill="white" transform="translate(0.719727)"/>
</clipPath>
<clipPath id="clip1_1_6465">
<rect width="24" height="24" fill="white" transform="translate(0.719727)"/>
</clipPath>
<clipPath id="clip2_1_6465">
<rect width="24" height="24" fill="white" transform="translate(0.719727)"/>
</clipPath>
</defs>
</svg>
